<svg width="61" height="61" xmlns="http://www.w3.org/2000/svg" xmlns:xlink="http://www.w3.org/1999/xlink" xml:space="preserve" overflow="hidden"><g transform="translate(-6 -10)"><path d="M24.7448 33.3268C23.9407 33.6777 23.5733 34.614 23.9243 35.4181 24.2752 36.2222 25.2116 36.5896 26.0156 36.2386 26.8197 35.8877 27.1871 34.9514 26.8361 34.1473 26.6759 33.7801 26.3828 33.487 26.0156 33.3268L26.0156 29.0676 23.474 29.0676 23.474 26.7038C24.278 26.3529 24.6454 25.4166 24.2945 24.6125 23.9435 23.8084 23.0072 23.441 22.2031 23.792 21.3991 24.1429 21.0317 25.0793 21.3826 25.8833 21.5429 26.2505 21.8359 26.5436 22.2031 26.7038L22.2031 29.0669 18.9104 29.0625C18.7884 29.4024 18.6975 29.7424 18.6022 30.1001 18.5819 30.1777 18.5603 30.2558 18.5387 30.3333L24.7448 30.3391Z"/><path d="M57.4688 42.4151 53.0844 34.7901 53.0844 34.4724C53.4579 23.9273 45.2121 15.0759 34.667 14.7024 34.6637 14.7023 34.6605 14.7022 34.6573 14.7021 34.4209 14.694 34.1856 14.6898 33.9513 14.6894 23.6835 14.6803 15.2558 22.8104 14.8958 33.072L14.8958 34.4699C14.8711 40.4834 17.6415 46.1671 22.3937 49.8521L22.3937 65.9326 42.4729 65.9326 42.4729 58.3076 45.5865 58.3076C49.724 58.2992 53.076 54.9472 53.0844 50.8096L53.0844 46.8701 55.8802 46.8701C57.5323 46.6737 58.9938 44.7668 57.4688 42.4151ZM56.724 44.8933C56.544 45.262 56.198 45.522 55.7938 45.5922L51.8135 45.5922 51.8135 50.8026C51.8087 54.2397 49.0236 57.0248 45.5865 57.0297L41.2021 57.0297 41.2021 64.6547 23.6646 64.6547 23.6646 49.2281 23.1715 48.8468C18.7227 45.409 16.1324 40.0927 16.1667 34.4705L16.1667 33.0955C16.4921 23.5167 24.3684 15.9292 33.9526 15.9615 34.1716 15.9615 34.3917 15.9655 34.6128 15.9736 44.4536 16.3291 52.1497 24.5832 51.8167 34.4248L51.8167 35.1276 51.9857 35.4218 56.3701 43.0467 56.3873 43.076 56.4057 43.1046C56.8186 43.6032 56.9403 44.2816 56.7266 44.8926Z"/><path d="M43.1719 23.6615C42.9866 23.663 42.8031 23.6975 42.6299 23.7631L40.6302 21.9636 40.6302 19.15C40.2108 18.9829 39.7838 18.8151 39.3594 18.6715L39.3594 22.5044 41.7104 24.6222C41.3637 25.4281 41.736 26.3625 42.5419 26.7092 43.3478 27.0559 44.2821 26.6837 44.6289 25.8778 44.9756 25.0719 44.6033 24.1375 43.7974 23.7908 43.5998 23.7057 43.387 23.6618 43.1719 23.6615Z"/><path d="M36.1823 36.3698C35.9751 36.37 35.77 36.411 35.5786 36.4905L31.099 31.9956 31.099 24.6184 34.9115 24.6184 34.9115 27.6049C34.1074 27.9558 33.74 28.8921 34.0909 29.6962 34.4419 30.5003 35.3782 30.8677 36.1823 30.5167 36.9864 30.1658 37.3537 29.2294 37.0028 28.4254 36.8426 28.0582 36.5495 27.7651 36.1823 27.6049L36.1823 23.3469 31.099 23.3469 31.099 21.6199C31.903 21.2689 32.2704 20.3326 31.9195 19.5285 31.5685 18.7245 30.6322 18.3571 29.8281 18.708 29.0241 19.0589 28.6567 19.9953 29.0076 20.7994 29.1679 21.1666 29.4609 21.4596 29.8281 21.6199L29.8281 32.4982 31.925 34.6643 28.5573 38.032 28.5573 41.1418 24.7251 41.1418 22.2749 38.264C22.6576 37.4473 22.3059 36.475 21.4892 36.0923 20.6725 35.7096 19.7002 36.0614 19.3175 36.878 18.9348 37.6947 19.2866 38.667 20.1033 39.0497 20.479 39.2257 20.9076 39.2522 21.3021 39.1237L24.1297 42.4132 28.5573 42.4132 28.5573 43.4934C27.7532 43.8444 27.3858 44.7807 27.7368 45.5848 28.0877 46.3889 29.0241 46.7563 29.8281 46.4053 30.6322 46.0544 30.9996 45.118 30.6486 44.314 30.4884 43.9468 30.1953 43.6537 29.8281 43.4934L29.8281 38.5334 32.8146 35.5469 34.6884 37.4341C34.401 38.2608 34.8382 39.164 35.6649 39.4514 36.4915 39.7388 37.3947 39.3016 37.6821 38.4749 37.9695 37.6483 37.5324 36.7451 36.7057 36.4577 36.5374 36.3991 36.3605 36.3695 36.1823 36.3698Z"/></g></svg>