<svg width="62" height="61" xmlns="http://www.w3.org/2000/svg" xmlns:xlink="http://www.w3.org/1999/xlink" xml:space="preserve" overflow="hidden"><g transform="translate(-645 -10)"><path d="M45.8771 8.26042C45.8771 11.0679 43.6012 13.3438 40.7938 13.3438 37.9863 13.3438 35.7104 11.0679 35.7104 8.26042 35.7104 5.45297 37.9863 3.17708 40.7938 3.17708 43.6012 3.17708 45.8771 5.45297 45.8771 8.26042Z" transform="matrix(1.01639 0 0 1 645 10)"/><path d="M53.1208 15.25C51.85 14.6146 50.325 15.0594 49.6896 16.3302L47.4656 20.524 37.6802 14.3604C37.299 14.1063 36.8542 13.9792 36.3458 13.9792L25.5438 13.9792C24.5906 13.9792 23.7646 14.4875 23.3198 15.3135L19.1896 22.9385C18.4906 24.1458 18.999 25.7344 20.2062 26.3698 20.5875 26.5604 21.0323 26.6875 21.4135 26.6875 22.3031 26.6875 23.1927 26.1792 23.6375 25.3531L27.0688 19.0625 30.8177 19.0625 19.5708 40.0312 9.02292 40.0312C7.625 40.0312 6.48125 41.175 6.48125 42.5729 6.48125 43.9708 7.625 45.1146 9.02292 45.1146L21.0958 45.1146C22.049 45.1146 22.875 44.6063 23.3198 43.7802L27.7677 35.5833 35.075 42.3823 34.5031 55.1542C34.376 56.5521 35.4562 57.7594 36.8542 57.8229 36.9177 57.8229 36.9177 57.8229 36.9813 57.8229 38.3156 57.8229 39.4594 56.7427 39.5229 55.4083L40.1583 41.4292C40.2219 40.6667 39.9042 39.9677 39.3323 39.4594L33.1688 33.7406 39.65 21.6677 47.0208 26.3063C47.5927 26.6875 48.3552 26.8146 49.0542 26.624 49.7531 26.4333 50.325 25.9885 50.6427 25.3531L54.1375 18.6812C54.8365 17.474 54.3917 15.949 53.1208 15.25Z" transform="matrix(1.01639 0 0 1 645 10)"/></g></svg>